<svg width="169" height="40" viewBox="0 0 169 40" fill="none" xmlns="http://www.w3.org/2000/svg">
<path d="M8.62937 39.4302H0V1.25356H8.62937V39.4302Z" fill="#69B483"/>
<path d="M42.3122 39.4302H34.2582V32.6496L33.7979 32.5356V22.5641C33.7979 20.7028 33.3185 19.4492 32.3597 18.8034C31.4392 18.1576 29.8284 17.8348 27.5273 17.8348C25.3411 17.8348 23.7687 18.1576 22.8099 18.8034C21.851 19.4492 21.3716 20.5888 21.3716 22.2222V22.4501H12.6847V22.2792C12.6847 19.924 13.3176 17.8538 14.5832 16.0684C15.8488 14.245 17.6322 12.8395 19.9334 11.8519C22.2729 10.8262 25.0151 10.3134 28.1601 10.3134C31.3817 10.3134 34.028 10.8262 36.0991 11.8519C38.2085 12.8775 39.7618 14.321 40.759 16.1823C41.7945 18.0057 42.3122 20.1709 42.3122 22.6781V39.4302ZM22.062 40C18.9554 40 16.52 39.3162 14.7558 37.9487C12.9916 36.5812 12.1094 34.7198 12.1094 32.3647C12.1094 30.9212 12.4546 29.6866 13.145 28.661C13.8353 27.6353 14.8708 26.8186 16.2515 26.2108C17.6322 25.5651 19.3581 25.1282 21.4292 24.9003L34.3732 23.5897V28.49L23.7879 29.6866C22.7523 29.7626 21.9853 29.9715 21.4867 30.3134C21.0265 30.6173 20.7963 31.1111 20.7963 31.7949C20.7963 32.5546 21.1032 33.1054 21.7168 33.4473C22.3305 33.7892 23.2701 33.9601 24.5357 33.9601C26.6068 33.9601 28.3135 33.7702 29.6558 33.3903C30.9982 33.0104 32.0145 32.4027 32.7049 31.5669C33.4336 30.6933 33.7979 29.5347 33.7979 28.0912L34.6033 28.0342V32.8775H33.7979C33.1459 35.0807 31.8228 36.8281 29.8284 38.1197C27.8724 39.3732 25.2836 40 22.062 40ZM37.94 7.52137H29.7709V0H37.94V7.52137ZM25.6863 7.52137H17.5172V0H25.6863V7.52137Z" fill="#69B483"/>
<path d="M99.2679 39.4302H90.6385V24.5014C90.6385 22.1462 90.1591 20.4748 89.2003 19.4872C88.2415 18.4995 86.5156 18.0057 84.0227 18.0057C81.4147 18.0057 79.6313 18.5565 78.6725 19.6581C77.752 20.7597 77.2918 22.5451 77.2918 25.0142H76.1987L75.5084 19.6581H77.1767C77.4068 18.0247 77.9054 16.5052 78.6725 15.0997C79.4779 13.6942 80.6477 12.5546 82.1818 11.6809C83.7542 10.7692 85.7677 10.3134 88.2223 10.3134C90.7153 10.3134 92.7671 10.8072 94.3779 11.7949C96.0271 12.7825 97.2544 14.1311 98.0598 15.8405C98.8652 17.5499 99.2679 19.4872 99.2679 21.6524V39.4302ZM55.3156 39.4302H46.6863V10.8832H54.6828V19.7721L55.3156 20.057V39.4302ZM77.2918 39.4302H68.6624V24.5014C68.6624 22.1462 68.183 20.4748 67.2242 19.4872C66.2654 18.4995 64.5395 18.0057 62.0466 18.0057C59.4002 18.0057 57.6168 18.5565 56.6963 19.6581C55.7759 20.7597 55.3156 22.5451 55.3156 25.0142H54.2226L53.5898 19.5442H55.1431C55.4115 17.9487 55.9293 16.4672 56.6963 15.0997C57.4634 13.6942 58.5948 12.5546 60.0906 11.6809C61.5863 10.7692 63.5423 10.3134 65.9585 10.3134C68.4515 10.3134 70.4842 10.8262 72.0566 11.8519C73.6674 12.8775 74.8564 14.245 75.6234 15.9544C76.3905 17.6638 76.774 19.5632 76.774 21.6524H77.2918V39.4302Z" fill="#69B483"/>
<path d="M135.525 39.4302H126.895V24.5014C126.895 22.1842 126.358 20.5318 125.285 19.5442C124.211 18.5185 122.351 18.0057 119.704 18.0057C116.943 18.0057 115.006 18.5755 113.894 19.7151C112.82 20.8167 112.283 22.5831 112.283 25.0142H111.19L110.557 19.6581H112.168C112.436 18.0627 113.012 16.5622 113.894 15.1567C114.776 13.7132 116.022 12.5546 117.633 11.6809C119.282 10.7692 121.373 10.3134 123.904 10.3134C126.512 10.3134 128.679 10.8262 130.405 11.8519C132.131 12.8395 133.415 14.188 134.259 15.8974C135.103 17.6068 135.525 19.5252 135.525 21.6524V39.4302ZM112.283 39.4302H103.654V10.8832H111.65V19.7721L112.283 20.057V39.4302Z" fill="#69B483"/>
<path d="M169 39.4302H160.946V32.6496L160.486 32.5356V22.5641C160.486 20.7028 160.006 19.4492 159.047 18.8034C158.127 18.1576 156.516 17.8348 154.215 17.8348C152.029 17.8348 150.456 18.1576 149.498 18.8034C148.539 19.4492 148.059 20.5888 148.059 22.2222V22.4501H139.372V22.2792C139.372 19.924 140.005 17.8538 141.271 16.0684C142.537 14.245 144.32 12.8395 146.621 11.8519C148.961 10.8262 151.703 10.3134 154.848 10.3134C158.069 10.3134 160.716 10.8262 162.787 11.8519C164.896 12.8775 166.45 14.321 167.447 16.1823C168.482 18.0057 169 20.1709 169 22.6781V39.4302ZM148.75 40C145.643 40 143.208 39.3162 141.444 37.9487C139.679 36.5812 138.797 34.7198 138.797 32.3647C138.797 30.9212 139.142 29.6866 139.833 28.661C140.523 27.6353 141.559 26.8186 142.939 26.2108C144.32 25.5651 146.046 25.1282 148.117 24.9003L161.061 23.5897V28.49L150.476 29.6866C149.44 29.7626 148.673 29.9715 148.174 30.3134C147.714 30.6173 147.484 31.1111 147.484 31.7949C147.484 32.5546 147.791 33.1054 148.405 33.4473C149.018 33.7892 149.958 33.9601 151.223 33.9601C153.295 33.9601 155.001 33.7702 156.344 33.3903C157.686 33.0104 158.702 32.4027 159.393 31.5669C160.121 30.6933 160.486 29.5347 160.486 28.0912L161.291 28.0342V32.8775H160.486C159.834 35.0807 158.511 36.8281 156.516 38.1197C154.56 39.3732 151.971 40 148.75 40Z" fill="#69B483"/>
</svg>
